name ./resultDataOpenSim/trcMotMarkerGrf/sub09/grf-03-08.mot
datacolumns 19
datarows 10
range 0.48400000 0.52000000
endheader

                time	     ground_force_vx	     ground_force_vy	     ground_force_vz	     ground_force_px	     ground_force_py	     ground_force_pz	   l_ground_force_vx	   l_ground_force_vy	   l_ground_force_vz	   l_ground_force_px	   l_ground_force_py	   l_ground_force_pz	     ground_torque_x	     ground_torque_y	     ground_torque_z	   l_ground_torque_x	   l_ground_torque_y	   l_ground_torque_z	
          0.48400000	         18.21136835	        394.45137439	        -20.17448667	         -0.69379560	          0.00000000	          0.10447687	          0.00000000	          0.00000000	          0.00000000	          0.00000000	          0.00000000	          0.00000000	          0.00000000	          3.40832114	          0.00000000	          0.00000000	          0.00000000	          0.00000000	
          0.48800000	         19.14867831	        399.55872851	        -22.35240240	         -0.69133332	          0.00000000	          0.10515412	          0.00000000	          0.00000000	          0.00000000	          0.00000000	          0.00000000	          0.00000000	          0.00000000	          3.28344101	          0.00000000	          0.00000000	          0.00000000	          0.00000000	
          0.49200000	         20.56275432	        405.17857442	        -23.83868875	         -0.68893576	          0.00000000	          0.10579437	          0.00000000	          0.00000000	          0.00000000	          0.00000000	          0.00000000	          0.00000000	          0.00000000	          3.25374395	          0.00000000	          0.00000000	          0.00000000	          0.00000000	
          0.49600000	         22.31134063	        411.44048011	        -24.59382429	         -0.68662811	          0.00000000	          0.10637588	          0.00000000	          0.00000000	          0.00000000	          0.00000000	          0.00000000	          0.00000000	          0.00000000	          3.32896142	          0.00000000	          0.00000000	          0.00000000	          0.00000000	
          0.50000000	         24.19397533	        418.46798881	        -24.70402075	         -0.68442398	          0.00000000	          0.10688663	          0.00000000	          0.00000000	          0.00000000	          0.00000000	          0.00000000	          0.00000000	          0.00000000	          3.50146110	          0.00000000	          0.00000000	          0.00000000	          0.00000000	
          0.50400000	         26.01188036	        426.34743270	        -24.35655618	         -0.68231092	          0.00000000	          0.10732912	          0.00000000	          0.00000000	          0.00000000	          0.00000000	          0.00000000	          0.00000000	          0.00000000	          3.74788480	          0.00000000	          0.00000000	          0.00000000	          0.00000000	
          0.50800000	         27.62622729	        435.11175682	        -23.79449681	         -0.68024457	          0.00000000	          0.10772871	          0.00000000	          0.00000000	          0.00000000	          0.00000000	          0.00000000	          0.00000000	          0.00000000	          4.03400625	          0.00000000	          0.00000000	          0.00000000	          0.00000000	
          0.51200000	         28.99396542	        444.73179124	        -23.26626021	         -0.67818398	          0.00000000	          0.10810883	          0.00000000	          0.00000000	          0.00000000	          0.00000000	          0.00000000	          0.00000000	          0.00000000	          4.32175353	          0.00000000	          0.00000000	          0.00000000	          0.00000000	
          0.51600000	         30.16777854	        455.11457636	        -22.98044118	         -0.67608268	          0.00000000	          0.10849303	          0.00000000	          0.00000000	          0.00000000	          0.00000000	          0.00000000	          0.00000000	          0.00000000	          4.57682371	          0.00000000	          0.00000000	          0.00000000	          0.00000000	
          0.52000000	         31.26586120	        466.11006406	        -23.06989282	         -0.67390871	          0.00000000	          0.10890928	          0.00000000	          0.00000000	          0.00000000	          0.00000000	          0.00000000	          0.00000000	          0.00000000	          4.77522494	          0.00000000	          0.00000000	          0.00000000	          0.00000000	
